<?xml version="1.0" encoding="UTF-8" standalone="no"?>
<!DOCTYPE svg PUBLIC "-//W3C//DTD SVG 1.1//EN"
 "http://www.w3.org/Graphics/SVG/1.1/DTD/svg11.dtd">
<!-- Generated by graphviz version 2.40.1 (20161225.0304)
 -->
<!-- Title: dependencies Pages: 1 -->
<svg width="504pt" height="284pt"
 viewBox="0.00 0.00 504.00 284.00" xmlns="http://www.w3.org/2000/svg" xmlns:xlink="http://www.w3.org/1999/xlink">
<g id="graph0" class="graph" transform="scale(1 1) rotate(0) translate(4 280)">
<title>dependencies</title>
<polygon fill="#ffffff" stroke="transparent" points="-4,4 -4,-280 500,-280 500,4 -4,4"/>
<text text-anchor="start" x="227.0091" y="-42.4" font-family="sans-serif" font-weight="bold" font-size="14.00" fill="#000000">Legend</text>
<polygon fill="#ffffb3" stroke="transparent" points="14,-10 14,-30 34,-30 34,-10 14,-10"/>
<text text-anchor="start" x="37.629" y="-15.4" font-family="sans-serif" font-size="14.00" fill="#000000"> &#160;Declarations</text>
<polygon fill="#8dd3c7" stroke="transparent" points="127,-10 127,-30 147,-30 147,-10 127,-10"/>
<text text-anchor="start" x="150.7251" y="-15.4" font-family="sans-serif" font-size="14.00" fill="#000000"> &#160;Module</text>
<polygon fill="#80b1d3" stroke="transparent" points="213,-10 213,-30 233,-30 233,-10 213,-10"/>
<text text-anchor="start" x="236.7812" y="-15.4" font-family="sans-serif" font-size="14.00" fill="#000000"> &#160;Bootstrap</text>
<polygon fill="#fdb462" stroke="transparent" points="310,-10 310,-30 330,-30 330,-10 310,-10"/>
<text text-anchor="start" x="333.6732" y="-15.4" font-family="sans-serif" font-size="14.00" fill="#000000"> &#160;Providers</text>
<polygon fill="#fb8072" stroke="transparent" points="406,-10 406,-30 426,-30 426,-10 406,-10"/>
<text text-anchor="start" x="429.7258" y="-15.4" font-family="sans-serif" font-size="14.00" fill="#000000"> &#160;Exports</text>
<g id="clust1" class="cluster">
<title>cluster_NavigationModule</title>
<polygon fill="none" stroke="#000000" stroke-dasharray="1,5" points="26,-70 26,-268 470,-268 470,-70 26,-70"/>
</g>
<g id="clust2" class="cluster">
<title>cluster_NavigationModule_declarations</title>
<polygon fill="none" stroke="#000000" points="34,-78 34,-130 462,-130 462,-78 34,-78"/>
</g>
<g id="clust7" class="cluster">
<title>cluster_NavigationModule_exports</title>
<polygon fill="none" stroke="#000000" points="102,-208 102,-260 394,-260 394,-208 102,-208"/>
</g>
<!-- ContentComponent -->
<g id="node1" class="node">
<title>ContentComponent</title>
<polygon fill="#ffffb3" stroke="#000000" points="453.6652,-122 328.3348,-122 328.3348,-86 453.6652,-86 453.6652,-122"/>
<text text-anchor="middle" x="391" y="-99.8" font-family="Times,serif" font-size="14.00" fill="#000000">ContentComponent</text>
</g>
<!-- NavigationModule -->
<g id="node4" class="node">
<title>NavigationModule</title>
<polygon fill="#8dd3c7" stroke="#000000" points="307.7576,-187 304.7576,-191 283.7576,-191 280.7576,-187 186.2424,-187 186.2424,-151 307.7576,-151 307.7576,-187"/>
<text text-anchor="middle" x="247" y="-164.8" font-family="Times,serif" font-size="14.00" fill="#000000">NavigationModule</text>
</g>
<!-- ContentComponent&#45;&gt;NavigationModule -->
<g id="edge1" class="edge">
<title>ContentComponent&#45;&gt;NavigationModule</title>
<path fill="none" stroke="#000000" d="M357.0675,-122.1061C357.0675,-141.3391 357.0675,-169 357.0675,-169 357.0675,-169 317.8285,-169 317.8285,-169"/>
<polygon fill="#000000" stroke="#000000" points="317.8286,-165.5001 307.8285,-169 317.8285,-172.5001 317.8286,-165.5001"/>
</g>
<!-- SidenavComponent -->
<g id="node2" class="node">
<title>SidenavComponent</title>
<polygon fill="#ffffb3" stroke="#000000" points="310.4356,-122 183.5644,-122 183.5644,-86 310.4356,-86 310.4356,-122"/>
<text text-anchor="middle" x="247" y="-99.8" font-family="Times,serif" font-size="14.00" fill="#000000">SidenavComponent</text>
</g>
<!-- SidenavComponent&#45;&gt;NavigationModule -->
<g id="edge2" class="edge">
<title>SidenavComponent&#45;&gt;NavigationModule</title>
<path fill="none" stroke="#000000" d="M247,-122.1061C247,-122.1061 247,-140.991 247,-140.991"/>
<polygon fill="#000000" stroke="#000000" points="243.5001,-140.9909 247,-150.991 250.5001,-140.991 243.5001,-140.9909"/>
</g>
<!-- StepperComponent -->
<g id="node3" class="node">
<title>StepperComponent</title>
<polygon fill="#ffffb3" stroke="#000000" points="166.0954,-122 41.9046,-122 41.9046,-86 166.0954,-86 166.0954,-122"/>
<text text-anchor="middle" x="104" y="-99.8" font-family="Times,serif" font-size="14.00" fill="#000000">StepperComponent</text>
</g>
<!-- StepperComponent&#45;&gt;NavigationModule -->
<g id="edge3" class="edge">
<title>StepperComponent&#45;&gt;NavigationModule</title>
<path fill="none" stroke="#000000" d="M138.125,-122.1061C138.125,-141.3391 138.125,-169 138.125,-169 138.125,-169 176.1961,-169 176.1961,-169"/>
<polygon fill="#000000" stroke="#000000" points="176.1961,-172.5001 186.1961,-169 176.196,-165.5001 176.1961,-172.5001"/>
</g>
<!-- SidenavComponent  -->
<g id="node5" class="node">
<title>SidenavComponent </title>
<polygon fill="#fb8072" stroke="#000000" points="385.9348,-252 256.0652,-252 256.0652,-216 385.9348,-216 385.9348,-252"/>
<text text-anchor="middle" x="321" y="-229.8" font-family="Times,serif" font-size="14.00" fill="#000000">SidenavComponent </text>
</g>
<!-- NavigationModule&#45;&gt;SidenavComponent  -->
<g id="edge4" class="edge">
<title>NavigationModule&#45;&gt;SidenavComponent </title>
<path fill="none" stroke="#000000" stroke-dasharray="5,2" d="M281.9557,-187.1061C281.9557,-187.1061 281.9557,-205.991 281.9557,-205.991"/>
<polygon fill="#000000" stroke="#000000" points="278.4557,-205.9909 281.9557,-215.991 285.4557,-205.991 278.4557,-205.9909"/>
</g>
<!-- StepperComponent  -->
<g id="node6" class="node">
<title>StepperComponent </title>
<polygon fill="#fb8072" stroke="#000000" points="237.596,-252 110.404,-252 110.404,-216 237.596,-216 237.596,-252"/>
<text text-anchor="middle" x="174" y="-229.8" font-family="Times,serif" font-size="14.00" fill="#000000">StepperComponent </text>
</g>
<!-- NavigationModule&#45;&gt;StepperComponent  -->
<g id="edge5" class="edge">
<title>NavigationModule&#45;&gt;StepperComponent </title>
<path fill="none" stroke="#000000" stroke-dasharray="5,2" d="M211.9595,-187.1061C211.9595,-187.1061 211.9595,-205.991 211.9595,-205.991"/>
<polygon fill="#000000" stroke="#000000" points="208.4596,-205.9909 211.9595,-215.991 215.4596,-205.991 208.4596,-205.9909"/>
</g>
</g>
</svg>
