<svg width="135" height="20" viewBox="0 0 135 20" fill="none" xmlns="http://www.w3.org/2000/svg">
<g clip-path="url(#clip0)">
<path opacity="0.9" d="M111.996 17.997C111.996 18.5276 111.785 19.0365 111.411 19.412C111.036 19.7875 110.527 19.999 109.997 20C109.466 19.999 108.958 19.7875 108.583 19.412C108.208 19.0365 107.997 18.5276 107.997 17.997C107.998 17.4664 108.21 16.9579 108.585 16.5831C108.961 16.2082 109.47 15.9977 110 15.9977C110.53 15.9997 111.038 16.2116 111.412 16.5871C111.786 16.9625 111.996 17.4708 111.996 18.0008V17.997Z" fill="#00DD8B"/>
<path d="M21.9996 15.9977C21.7267 16.0145 21.4533 15.9753 21.1962 15.8824C20.939 15.7895 20.7036 15.645 20.5045 15.4577C20.3053 15.2704 20.1466 15.0443 20.0381 14.7933C19.9296 14.5424 19.8736 14.2719 19.8736 13.9985C19.8736 13.7251 19.9296 13.4546 20.0381 13.2036C20.1466 12.9527 20.3053 12.7266 20.5045 12.5393C20.7036 12.352 20.939 12.2075 21.1962 12.1146C21.4533 12.0217 21.7267 11.9825 21.9996 11.9992C22.2755 12.0096 22.5505 11.9628 22.8075 11.8618C23.0644 11.7609 23.2977 11.6078 23.4927 11.4124C23.6877 11.217 23.8402 10.9834 23.9406 10.7262C24.0411 10.469 24.0872 10.1939 24.0763 9.91803C24.0653 9.64217 23.9974 9.37156 23.8769 9.12319C23.7564 8.87481 23.5858 8.65403 23.3759 8.4747C23.166 8.29538 22.9213 8.16138 22.6571 8.08112C22.393 8.00086 22.1151 7.97607 21.8409 8.00831C20.2731 8.06271 18.789 8.72921 17.7068 9.86491C16.6246 11.0006 16.0304 12.5151 16.0517 14.0837C16.0729 15.6523 16.7079 17.1502 17.8205 18.2561C18.9331 19.3621 20.4347 19.9881 22.0034 20H30.0004C30.5316 20 31.0411 19.789 31.4167 19.4133C31.7924 19.0377 32.0034 18.5282 32.0034 17.997V6.00529C32.0034 2.6833 29.3163 2.50053e-08 26.0019 2.50053e-08H6.00567C2.68746 2.50053e-08 0.0041609 2.6833 0.0041609 6.00151V18.0008C-0.012626 18.2736 0.0266291 18.5471 0.119509 18.8042C0.212388 19.0613 0.356925 19.2968 0.544219 19.4959C0.731513 19.6951 0.957597 19.8538 1.20855 19.9623C1.4595 20.0708 1.73001 20.1268 2.00341 20.1268C2.2768 20.1268 2.54731 20.0708 2.79826 19.9623C3.04921 19.8538 3.2753 19.6951 3.46259 19.4959C3.64988 19.2968 3.79442 19.0613 3.8873 18.8042C3.98018 18.5471 4.01944 18.2736 4.00265 18.0008V13.0008C4.00265 12.4452 4.45238 11.9992 5.00416 11.9992H10.0042C10.5131 11.9679 10.991 11.7437 11.3404 11.3722C11.6897 11.0007 11.8842 10.5099 11.8842 10C11.8842 9.49005 11.6897 8.99931 11.3404 8.62782C10.991 8.25633 10.5131 8.03207 10.0042 8.00076H6.00567C5.48998 7.97834 5.00286 7.75771 4.64588 7.38488C4.2889 7.01205 4.08963 6.5158 4.08963 5.99962C4.08963 5.48345 4.2889 4.9872 4.64588 4.61437C5.00286 4.24153 5.48998 4.0209 6.00567 3.99849H26.0019C26.5331 3.99849 27.0426 4.20952 27.4182 4.58516C27.7939 4.9608 28.0049 5.47028 28.0049 6.00151V14.9962C28.0049 15.2618 27.8994 15.5166 27.7116 15.7044C27.5238 15.8922 27.269 15.9977 27.0034 15.9977H21.9996ZM58.0011 3.99849H63.9989C64.2718 4.01527 64.5452 3.97602 64.8023 3.88314C65.0595 3.79026 65.2949 3.64572 65.494 3.45843C65.6932 3.27114 65.8519 3.04505 65.9604 2.7941C66.0689 2.54315 66.1249 2.27264 66.1249 1.99924C66.1249 1.72584 66.0689 1.45534 65.9604 1.20439C65.8519 0.953436 65.6932 0.727352 65.494 0.540058C65.2949 0.352764 65.0595 0.208227 64.8023 0.115348C64.5452 0.0224682 64.2718 -0.0167869 63.9989 2.50053e-08H44.0027C41.3505 2.50053e-08 38.8069 1.05357 36.9316 2.92893C35.0562 4.8043 34.0027 7.34783 34.0027 10C34.0027 12.6522 35.0562 15.1957 36.9316 17.0711C38.8069 18.9464 41.3505 20 44.0027 20H48.0011C48.2712 20.0117 48.5409 19.9687 48.794 19.8734C49.047 19.7781 49.2781 19.6326 49.4734 19.4456C49.6687 19.2587 49.8241 19.0341 49.9302 18.7854C50.0364 18.5368 50.0911 18.2692 50.0911 17.9989C50.0911 17.7285 50.0364 17.4609 49.9302 17.2123C49.8241 16.9636 49.6687 16.7391 49.4734 16.5521C49.2781 16.3651 49.047 16.2196 48.794 16.1243C48.5409 16.0291 48.2712 15.986 48.0011 15.9977H44.0027C42.4375 15.9584 40.9497 15.3091 39.8566 14.1882C38.7635 13.0674 38.1517 11.5637 38.1517 9.99811C38.1517 8.43249 38.7635 6.92885 39.8566 5.80798C40.9497 4.68712 42.4375 4.03777 44.0027 3.99849H53.9989V18.0008C53.9871 18.2709 54.0302 18.5406 54.1255 18.7936C54.2207 19.0466 54.3662 19.2777 54.5532 19.473C54.7402 19.6683 54.9648 19.8237 55.2134 19.9299C55.4621 20.036 55.7296 20.0908 56 20.0908C56.2704 20.0908 56.5379 20.036 56.7866 19.9299C57.0352 19.8237 57.2598 19.6683 57.4468 19.473C57.6338 19.2777 57.7793 19.0466 57.8745 18.7936C57.9698 18.5406 58.0129 18.2709 58.0011 18.0008V3.99849V3.99849ZM75.9981 2.50053e-08C73.3459 2.50053e-08 70.8024 1.05357 68.927 2.92893C67.0517 4.8043 65.9981 7.34783 65.9981 10C65.9981 12.6522 67.0517 15.1957 68.927 17.0711C70.8024 18.9464 73.3459 20 75.9981 20C77.3113 20 78.6117 19.7413 79.8249 19.2388C81.0382 18.7362 82.1406 17.9997 83.0692 17.0711C83.9978 16.1425 84.7344 15.0401 85.2369 13.8268C85.7395 12.6136 85.9981 11.3132 85.9981 10C85.9981 8.68678 85.7395 7.38642 85.2369 6.17317C84.7344 4.95991 83.9978 3.85752 83.0692 2.92893C82.1406 2.00035 81.0382 1.26375 79.8249 0.761205C78.6117 0.258658 77.3113 2.50053e-08 75.9981 2.50053e-08V2.50053e-08ZM75.9981 3.99849C76.7864 3.99799 77.567 4.15289 78.2954 4.45431C79.0237 4.75574 79.6855 5.19779 80.2429 5.75518C80.8003 6.31257 81.2424 6.97437 81.5438 7.70273C81.8452 8.43109 82.0001 9.21173 81.9996 10C81.9996 10.788 81.8444 11.5682 81.5427 12.2961C81.2411 13.024 80.7989 13.6854 80.2416 14.2424C79.6843 14.7994 79.0226 15.2411 78.2945 15.5423C77.5664 15.8435 76.7861 15.9982 75.9981 15.9977C74.4074 15.9977 72.8819 15.3658 71.7571 14.241C70.6323 13.1162 70.0004 11.5907 70.0004 10C69.9999 9.21205 70.1547 8.43172 70.4558 7.70361C70.757 6.97549 71.1987 6.31386 71.7557 5.75652C72.3127 5.19918 72.9741 4.75705 73.702 4.4554C74.4299 4.15375 75.2102 3.99849 75.9981 3.99849V3.99849ZM89.9966 2.50053e-08C89.466 0.00100112 88.9575 0.212475 88.5827 0.588006C88.2079 0.963538 87.9974 1.47244 87.9974 2.00302V18.0008C87.9856 18.2709 88.0287 18.5406 88.1239 18.7936C88.2192 19.0466 88.3647 19.2777 88.5517 19.473C88.7387 19.6683 88.9633 19.8237 89.2119 19.9299C89.4606 20.036 89.7281 20.0908 89.9985 20.0908C90.2689 20.0908 90.5364 20.036 90.7851 19.9299C91.0337 19.8237 91.2583 19.6683 91.4453 19.473C91.6322 19.2777 91.7778 19.0466 91.873 18.7936C91.9683 18.5406 92.0114 18.2709 91.9996 18.0008V5C91.9996 4.44822 92.4456 3.99849 92.9974 3.99849H97.9974C98.2675 3.98675 98.5372 4.02981 98.7902 4.12508C99.0432 4.22035 99.2743 4.36586 99.4696 4.55284C99.6649 4.73982 99.8203 4.9644 99.9265 5.21305C100.033 5.46169 100.087 5.72926 100.087 5.99962C100.087 6.26999 100.033 6.53755 99.9265 6.7862C99.8203 7.03484 99.6649 7.25942 99.4696 7.4464C99.2743 7.63338 99.0432 7.77889 98.7902 7.87416C98.5372 7.96943 98.2675 8.0125 97.9974 8.00076H96.9958C96.4869 8.03207 96.009 8.25633 95.6596 8.62782C95.3103 8.99931 95.1158 9.49005 95.1158 10C95.1158 10.5099 95.3103 11.0007 95.6596 11.3722C96.009 11.7437 96.4869 11.9679 96.9958 11.9992H97.9974C98.5286 11.9992 99.0381 12.2103 99.4137 12.5859C99.7893 12.9616 100 13.471 100 14.0023V18.0008C99.9836 18.2736 100.023 18.5471 100.116 18.8042C100.209 19.0613 100.353 19.2968 100.54 19.4959C100.728 19.6951 100.954 19.8538 101.205 19.9623C101.456 20.0708 101.726 20.1268 102 20.1268C102.273 20.1268 102.544 20.0708 102.794 19.9623C103.045 19.8538 103.272 19.6951 103.459 19.4959C103.646 19.2968 103.791 19.0613 103.884 18.8042C103.976 18.5471 104.016 18.2736 103.999 18.0008V13.9985C103.998 12.5213 103.45 11.0967 102.461 10C103.233 9.13782 103.74 8.07052 103.919 6.92688C104.098 5.78325 103.943 4.61215 103.471 3.5549C103 2.49766 102.233 1.59945 101.262 0.968657C100.291 0.337864 99.1587 0.00144697 98.0011 2.50053e-08H89.9966Z" fill="#767676"/>
<path d="M115 13C115 13.9193 115.181 14.8295 115.533 15.6788C115.885 16.5281 116.4 17.2997 117.05 17.9497C117.7 18.5998 118.472 19.1154 119.321 19.4672C120.17 19.8189 121.081 20 122 20C122.919 20 123.83 19.8189 124.679 19.4672C125.528 19.1154 126.3 18.5998 126.95 17.9497C127.6 17.2997 128.115 16.5281 128.467 15.6788C128.819 14.8295 129 13.9193 129 13H126C126 13.5254 125.897 14.0456 125.696 14.5309C125.495 15.0163 125.2 15.4573 124.829 15.8288C124.457 16.2003 124.016 16.4949 123.531 16.696C123.046 16.897 122.525 17.0005 122 17.0005C121.475 17.0005 120.954 16.897 120.469 16.696C119.984 16.4949 119.543 16.2003 119.171 15.8288C118.8 15.4573 118.505 15.0163 118.304 14.5309C118.103 14.0456 118 13.5254 118 13L115 13Z" fill="#00DD8B"/>
<path d="M115 6.5C115 5.67157 115.672 5 116.5 5V5C117.328 5 118 5.67157 118 6.5V13H115V6.5Z" fill="#00DD8B"/>
<path d="M126 6.5C126 5.67157 126.672 5 127.5 5V5C128.328 5 129 5.67157 129 6.5V13H126V6.5Z" fill="#00DD8B"/>
<path d="M132 6.5C132 5.67157 132.672 5 133.5 5V5C134.328 5 135 5.67157 135 6.5V18.5C135 19.3284 134.328 20 133.5 20V20C132.672 20 132 19.3284 132 18.5V6.5Z" fill="#00DD8B"/>
</g>
<defs>
<clipPath id="clip0">
<rect width="135" height="20" fill="white"/>
</clipPath>
</defs>
</svg>
